# xmcd CD database file
#
# Track frame offsets:
#	150
#	23549
#	37702
#	52442
#	67135
#	81268
#	95063
#	106070
#	119866
#	134431
#	147433
#	159833
#	174328
#	188761
#	203334
#	214311
#	228710
#	241764
#	253891
#	265366
#	280157
#	292326
#	306557
#	317576
#	331751
#
# Disc length: 4610 seconds
#
# Revision: 0
# Processed by: cddbd v1.5.2PL0 Copyright (c) Steve Scherf et al.
# Submitted via: CDex 1.70beta2
#
DISCID=7f120019
DTITLE=Ella Fitzgerald - The American Songbook
DYEAR=1900
DGENRE=Jazz
TTITLE0=(If You Can't Sing It) You'll Have to Swing It
TTITLE1=I Wished on the Moon
TTITLE2=I've Got The World on a String
TTITLE3=How High the Moon
TTITLE4=Taking a Chance on Love
TTITLE5=Dream a Little Dream of Me
TTITLE6=Happy Talk
TTITLE7=Black Coffee
TTITLE8=Oh, Lady Be Good
TTITLE9=Angel Eyes
TTITLE10=Soon
TTITLE11=Someone to Watch Over Me
TTITLE12=But Not For Me
TTITLE13=My One and Only
TTITLE14=That Old Feeling
TTITLE15=Guilty
TTITLE16=I'm Gonna Wash That Man Right Outa My Hair
TTITLE17=Baby it's Cold Outside (with Louis Jordan)
TTITLE18=I've Got A Feelin' I'm Fallin'
TTITLE19=Sentimental Journey
TTITLE20=Moanin' Low
TTITLE21=(I Love You) For Sentimental Reasons
TTITLE22=Flying Home
TTITLE23=Crying
TTITLE24=Smooth Sailing
EXTD=
EXTT0=
EXTT1=
EXTT2=
EXTT3=
EXTT4=
EXTT5=
EXTT6=
EXTT7=
EXTT8=
EXTT9=
EXTT10=
EXTT11=
EXTT12=
EXTT13=
EXTT14=
EXTT15=
EXTT16=
EXTT17=
EXTT18=
EXTT19=
EXTT20=
EXTT21=
EXTT22=
EXTT23=
EXTT24=
PLAYORDER=
